<?xml version="1.0" encoding="utf-8"?>
<!-- Generator: Adobe Illustrator 24.0.1, SVG Export Plug-In . SVG Version: 6.00 Build 0)  -->
<svg version="1.1" id="Layer_1" xmlns="http://www.w3.org/2000/svg" xmlns:xlink="http://www.w3.org/1999/xlink" x="0px" y="0px"
	 viewBox="0 0 60 60" style="enable-background:new 0 0 60 60;" xml:space="preserve">
<style type="text/css">
	.st0{fill:#FFFFFF;}
</style>
<path class="st0" d="M48.8,52h-9.8c-0.8,0-1.4-0.6-1.4-1.4v-4.7c0-0.8,0.6-1.4,1.4-1.4h9.8c2.1,0,3.8-1.7,3.8-3.8V18.3
	c0-2.1-1.7-3.8-3.8-3.8h-9.8c-0.8,0-1.4-0.6-1.4-1.4V8.4c0-0.8,0.6-1.4,1.4-1.4h9.8C55,7,60,12.1,60,18.3v22.5C60,47,55,52,48.8,52z
	 M43.2,28.5L23.6,8.8c-1.8-1.8-4.8-0.5-4.8,2V22H2.8C1.3,22,0,23.3,0,24.8v11.3c0,1.6,1.3,2.8,2.8,2.8h15.9v11.3c0,2.5,3,3.8,4.8,2
	l19.7-19.7C44.3,31.4,44.3,29.6,43.2,28.5z"/>
</svg>
